<?xml version="1.0" encoding="utf-8"?>

<!DOCTYPE svg PUBLIC "-//W3C//DTD SVG 1.1//EN" "http://www.w3.org/Graphics/SVG/1.1/DTD/svg11.dtd">
<svg version="1.1" id="Layer_1" xmlns="http://www.w3.org/2000/svg" xmlns:xlink="http://www.w3.org/1999/xlink" x="0px" y="0px"
	 viewBox="0 0 1726 1641.524" enable-background="new 0 0 1726 1641.524" xml:space="preserve">
<g>
	<path d="M863,290.224c25.388,161.242,53.679,340.473,79.718,505.274c164.782-26.162,343.983-54.641,505.178-80.322
		c-145.505,73.972-307.221,156.264-455.91,231.954c75.802,148.632,158.264,310.262,232.5,455.632
		C1109.171,1287.238,980.934,1158.866,863,1040.844c-117.934,118.022-246.171,246.394-361.486,361.918
		c74.236-145.37,156.698-307,232.5-455.632c-148.689-75.691-310.405-157.982-455.91-231.954
		c161.195,25.681,340.397,54.16,505.178,80.322C809.321,630.697,837.612,451.466,863,290.224z M954.689,779.021
		C924.162,585.742,890.798,373.919,863,196.732c-27.798,177.187-61.162,389.01-91.689,582.289
		c-193.253-30.694-405.018-64.42-582.123-92.736c159.925,81.191,351.07,178.379,525.456,267.138
		c-88.91,174.309-186.424,365.289-268.083,524.975C573.198,1351.391,724.697,1199.633,863,1061.21
		c138.303,138.423,289.802,290.181,416.439,417.189c-81.659-159.686-179.173-350.666-268.083-524.975
		c174.386-88.759,365.532-185.947,525.456-267.138C1359.707,714.602,1147.941,748.328,954.689,779.021z"/>
	<path d="M1617.598,660.036c-131.142,66.552-284.008,144.149-320.739,163.168c10.811,16.992-12.586,4.846,79.686,36.609
		c4.19,1.563-0.355,2.187,70.165-33.135c3.022-1.683,7.355-2.649,8.07-6.596c5.455-18.672,11.956-37.02,17.534-55.645
		c-3.974,1.802-107.152,54.318-118.346,60.168c4.979,2.288,10.195,3.939,15.355,5.739c2.213,0.697,4.704,1.747,6.897,0.399
		c23.766-11.791,47.115-24.446,71.019-35.944c-4.379,17.642-4.863,17.079-9.02,19.357c-61.831,31.111-59.641,31.385-63.216,30.034
		c-2.47-0.725-43.812-14.536-51.769-18.037c10.498-6.467,240.15-122.978,380.936-194.245
		c-155.788,25.095-410.064,65.822-422.358,66.761c4.379-7.509,29.708-42.982,31.28-45.021c2.098-3.195,0.487-1.685,68.796-12.859
		c4.702-0.601,4.762-1.34,18.675,10.358c-26.098,4.748-52.425,8.234-78.583,12.665c-2.566,0.198-3.965,2.512-5.345,4.376
		c-3.116,4.489-6.365,8.891-9.049,13.668c12.495-1.846,126.835-20.006,131.11-20.885c-15.461-11.789-31.504-22.812-46.893-34.712
		c-2.898-2.773-6.971-1.008-10.406-0.593c-77.813,12.875-73.77,10.708-76.241,14.435c-55.98,79.932-44.19,56.354-42.949,76.455
		C1303.102,710.353,1472.384,683.278,1617.598,660.036z"/>
	<path d="M1329.367,1547.119c-103.819-104.158-224.857-225.563-254.295-254.619c-12.82,15.533-8.498-10.472-10.193,87.098
		c-0.191,4.467-2.189,0.338,53.195,56.491c2.534,2.354,4.792,6.177,8.767,5.637c19.444-0.582,38.903-0.069,58.34-0.519
		c-2.942-3.223-84.771-85.122-93.795-93.961c-0.637,5.443-0.595,10.913-0.713,16.377c0.021,2.32-0.208,5.013,1.752,6.682
		c18.558,18.96,37.809,37.255,56.131,56.436c-18.132,1.287-17.745,0.653-21.196-2.597c-48.695-49.191-48.279-47.023-48.099-50.841
		c-0.073-2.574,0.286-46.159,1.156-54.809c9.395,7.985,191.169,190.394,302.454,302.266
		c-72.008-140.408-189.317-369.654-194.009-381.056c8.495,1.844,50.059,14.972,52.484,15.837c3.687,1.008,1.753-0.057,33.489,61.455
		c2.024,4.286,2.746,4.115-4.08,20.961c-12.581-23.353-24.031-47.315-36.328-70.824c-0.982-2.38-3.614-2.995-5.814-3.731
		c-5.233-1.576-10.422-3.306-15.796-4.382c5.617,11.313,58.222,114.445,60.378,118.239c6.435-18.347,11.96-37.011,18.522-55.324
		c1.742-3.613-1.196-6.941-2.652-10.079c-36.29-70.026-32.98-66.85-37.288-68.048c-93.319-28.539-67.251-24.613-85.985-17.221
		C1184.329,1263.564,1262.389,1416.195,1329.367,1547.119z"/>
	<path d="M396.633,1547.119c66.978-130.925,145.038-283.555,163.575-320.531c-18.734-7.392,7.334-11.319-85.985,17.221
		c-4.308,1.198-0.998-1.978-37.288,68.048c-1.456,3.138-4.394,6.466-2.652,10.079c6.562,18.313,12.087,36.977,18.522,55.324
		c2.156-3.794,54.761-106.926,60.378-118.239c-5.373,1.076-10.563,2.806-15.796,4.382c-2.2,0.737-4.832,1.352-5.814,3.731
		c-12.297,23.509-23.748,47.47-36.328,70.824c-6.827-16.847-6.105-16.675-4.08-20.961c31.736-61.513,29.802-60.447,33.489-61.455
		c2.425-0.865,43.988-13.993,52.484-15.837c-4.691,11.402-122.001,240.648-194.009,381.056
		c111.285-111.872,293.059-294.281,302.454-302.266c0.871,8.649,1.23,52.235,1.156,54.809c0.181,3.818,0.596,1.65-48.099,50.841
		c-3.451,3.25-3.065,3.884-21.196,2.597c18.323-19.181,37.573-37.476,56.131-56.436c1.96-1.669,1.731-4.363,1.752-6.682
		c-0.118-5.464-0.076-10.934-0.713-16.377c-9.024,8.838-90.853,90.738-93.794,93.961c19.438,0.45,38.896-0.062,58.34,0.519
		c3.975,0.54,6.232-3.282,8.767-5.637c55.384-56.153,53.387-52.024,53.195-56.491c-1.695-97.571,2.627-71.566-10.193-87.098
		C621.49,1321.556,500.452,1442.961,396.633,1547.119z"/>
	<path d="M108.402,660.036c145.214,23.242,314.496,50.317,355.39,56.52c1.241-20.101,13.031,3.477-42.949-76.455
		c-2.471-3.727,1.572-1.56-76.241-14.435c-3.434-0.415-7.507-2.181-10.405,0.593c-15.389,11.9-31.432,22.922-46.893,34.712
		c4.275,0.878,118.615,19.038,131.11,20.885c-2.684-4.778-5.933-9.179-9.049-13.668c-1.38-1.865-2.779-4.178-5.345-4.376
		c-26.158-4.431-52.486-7.916-78.583-12.665c13.912-11.699,13.973-10.959,18.675-10.358c68.309,11.174,66.698,9.664,68.796,12.859
		c1.572,2.039,26.901,37.512,31.28,45.021c-12.294-0.938-266.57-41.666-422.358-66.761
		c140.786,71.268,370.438,187.778,380.936,194.245c-7.957,3.501-49.299,17.311-51.769,18.037
		c-3.575,1.352-1.385,1.077-63.216-30.034c-4.157-2.278-4.641-1.715-9.02-19.357c23.905,11.498,47.253,24.153,71.019,35.944
		c2.193,1.348,4.684,0.298,6.897-0.399c5.16-1.8,10.375-3.451,15.355-5.739c-11.194-5.851-114.372-58.367-118.346-60.168
		c5.578,18.625,12.079,36.973,17.534,55.645c0.715,3.947,5.047,4.913,8.07,6.596c70.519,35.321,65.975,34.697,70.165,33.135
		c92.272-31.763,68.875-19.617,79.686-36.609C392.41,804.186,239.544,726.588,108.402,660.036z"/>
	<path d="M863,111.789c22.769,145.289,49.331,314.652,56.068,355.462c19.501-5.031,0.72,13.468,59.442-64.473
		c2.781-3.502,1.97,1.013-9.831-76.97c-0.667-3.394-0.246-7.814-3.779-9.713c-16.073-10.959-31.514-22.81-47.503-33.871
		c0.485,4.337,18.547,118.693,20.653,131.147c3.715-4.029,6.896-8.479,10.203-12.83c1.347-1.889,3.115-3.934,2.51-6.436
		c-3.87-26.247-8.69-52.363-12.239-78.651c15.425,9.616,14.74,9.902,15.622,14.56c10.481,68.419,11.419,66.42,9.029,69.403
		c-1.453,2.125-27.363,37.176-33.151,43.661C927.116,431.096,887.274,176.68,863,20.762
		c-24.274,155.918-64.116,410.334-67.023,422.316c-5.788-6.486-31.698-41.536-33.151-43.661c-2.39-2.982-1.452-0.984,9.029-69.403
		c0.882-4.657,0.197-4.943,15.622-14.56c-3.549,26.288-8.369,52.404-12.239,78.651c-0.605,2.502,1.164,4.547,2.51,6.436
		c3.307,4.351,6.489,8.801,10.203,12.83c2.105-12.454,20.167-126.81,20.653-131.147c-15.99,11.061-31.431,22.913-47.503,33.871
		c-3.533,1.899-3.113,6.319-3.779,9.713c-11.801,77.983-12.612,73.468-9.831,76.97c58.722,77.94,39.94,59.442,59.442,64.473
		C813.669,426.441,840.231,257.078,863,111.789z"/>
	<path d="M974.67,428.303c-10.027,13.754-20.392,27.254-30.454,40.973c17.55,12.4,34.987,24.957,52.433,37.513
		c9.871-12.797,19.381-25.874,29.287-38.637c3.536-4.03,6.462-8.529,9.271-13.079c-6.215-4.968-44.741-32.356-52.528-37.488
		C979.877,421.053,977.235,424.654,974.67,428.303z M1015.148,458.508c-3.256,5.307-16.991,23.789-21.502,29.006
		c-9.869-7.033-20.008-13.706-29.452-21.313c6.503-10.152,14.268-19.403,21.419-29.092
		C995.351,444.381,1005.53,451.058,1015.148,458.508z"/>
	<path d="M443.933,651.64c9.982,13.786,19.619,27.815,29.557,41.625c17.217-12.86,34.547-25.562,51.879-38.275
		c-9.12-13.343-18.619-26.428-27.696-39.793c-2.74-4.608-6.115-8.781-9.574-12.859c-6.645,4.376-44.598,32.553-51.885,38.373
		C438.647,644.448,441.255,648.073,443.933,651.64z M485.168,622.477c4.041,4.736,17.375,23.51,20.942,29.413
		c-9.739,7.213-19.218,14.793-29.371,21.425c-7.645-9.321-14.044-19.566-21.049-29.361
		C465.615,636.94,475.111,629.322,485.168,622.477z"/>
	<path d="M492.332,1225.416c16.196-5.233,32.517-10.063,48.721-15.248c-6.91-20.348-13.635-40.756-20.37-61.168
		c-15.508,4.551-30.888,9.541-46.404,14.044c-5.23,1.182-10.241,3.102-15.188,5.131c2.108,7.672,17.178,52.475,20.461,61.203
		C483.858,1228.221,488.113,1226.86,492.332,1225.416z M477.339,1177.188c5.753-2.38,27.729-9.259,34.445-10.828
		c3.85,11.491,8.13,22.849,11.3,34.554c-11.228,4.391-22.948,7.311-34.428,10.946
		C485.052,1200.252,480.741,1188.868,477.339,1177.188z"/>
	<path d="M1052.982,1356.692c0.028-17.021,0.478-34.035,0.554-51.049c-21.487,0.284-42.974,0.374-64.469,0.471
		c-0.464,16.155-0.471,32.324-0.983,48.473c-0.492,5.339-0.215,10.699,0.187,16.031c7.948,0.366,55.215-0.122,64.531-0.547
		C1053.031,1365.618,1053.051,1361.151,1052.982,1356.692z M1002.481,1356.048c-0.485-6.207-0.237-29.233,0.346-36.105
		c12.118-0.111,24.243-0.672,36.354-0.069c0.706,12.035-0.139,24.084-0.229,36.126
		C1026.8,1355.84,1014.64,1356.422,1002.481,1356.048z"/>
	<path d="M1351.083,864.049c-16.179-5.286-32.221-10.972-48.379-16.302c-6.37,20.523-12.924,40.987-19.474,61.459
		c15.221,5.434,30.597,10.437,45.796,15.914c4.926,2.117,10.109,3.51,15.304,4.776c2.804-7.446,16.946-52.55,19.421-61.542
		C1359.587,866.761,1355.346,865.361,1351.083,864.049z M1334.865,911.88c-6.053-1.456-27.875-8.808-34.231-11.486
		c3.639-11.559,6.853-23.264,11.168-34.597c11.664,3.047,22.862,7.574,34.287,11.381
		C1342.182,888.686,1338.978,900.431,1334.865,911.88z"/>
	<path d="M1282.067,651.64c-9.982,13.786-19.619,27.815-29.557,41.625c-17.217-12.86-34.547-25.562-51.88-38.275
		c9.12-13.343,18.619-26.428,27.696-39.793c2.74-4.608,6.115-8.781,9.574-12.859c6.645,4.376,44.598,32.553,51.885,38.373
		C1287.353,644.448,1284.745,648.073,1282.067,651.64z M1240.832,622.477c-4.041,4.736-17.375,23.51-20.942,29.413
		c9.739,7.213,19.218,14.793,29.371,21.425c7.645-9.321,14.044-19.566,21.049-29.361
		C1260.385,636.94,1250.89,629.322,1240.832,622.477z"/>
	<path d="M751.33,428.303c10.027,13.754,20.392,27.254,30.454,40.973c-17.55,12.4-34.987,24.957-52.433,37.513
		c-9.871-12.797-19.381-25.874-29.287-38.637c-3.536-4.03-6.462-8.529-9.271-13.079c6.215-4.968,44.741-32.356,52.528-37.488
		C746.123,421.053,748.765,424.654,751.33,428.303z M710.852,458.508c3.256,5.307,16.991,23.789,21.502,29.006
		c9.869-7.033,20.008-13.706,29.452-21.313c-6.503-10.152-14.268-19.403-21.419-29.092
		C730.649,444.381,720.47,451.058,710.852,458.508z"/>
	<path d="M374.917,864.049c16.179-5.286,32.221-10.972,48.379-16.302c6.37,20.523,12.924,40.987,19.474,61.459
		c-15.221,5.434-30.597,10.437-45.796,15.914c-4.926,2.117-10.109,3.51-15.304,4.776c-2.804-7.446-16.946-52.55-19.421-61.542
		C366.413,866.761,370.654,865.361,374.917,864.049z M391.135,911.88c6.053-1.456,27.875-8.808,34.231-11.486
		c-3.639-11.559-6.853-23.264-11.168-34.597c-11.664,3.047-22.862,7.574-34.287,11.381
		C383.818,888.686,387.022,900.431,391.135,911.88z"/>
	<path d="M673.018,1356.692c-0.028-17.021-0.478-34.035-0.554-51.049c21.487,0.284,42.974,0.374,64.469,0.471
		c0.464,16.155,0.471,32.324,0.983,48.473c0.492,5.339,0.215,10.699-0.187,16.031c-7.948,0.366-55.215-0.122-64.531-0.547
		C672.969,1365.618,672.949,1361.151,673.018,1356.692z M723.519,1356.048c0.485-6.207,0.237-29.233-0.346-36.105
		c-12.118-0.111-24.243-0.672-36.354-0.069c-0.706,12.035,0.138,24.084,0.229,36.126
		C699.2,1355.84,711.36,1356.422,723.519,1356.048z"/>
	<path d="M1233.668,1225.416c-16.196-5.233-32.516-10.063-48.721-15.248c6.91-20.348,13.635-40.756,20.37-61.168
		c15.508,4.551,30.888,9.541,46.404,14.044c5.229,1.182,10.241,3.102,15.188,5.131c-2.108,7.672-17.178,52.475-20.461,61.203
		C1242.142,1228.221,1237.887,1226.86,1233.668,1225.416z M1248.661,1177.188c-5.753-2.38-27.729-9.259-34.445-10.828
		c-3.85,11.491-8.13,22.849-11.3,34.554c11.228,4.391,22.948,7.311,34.428,10.946
		C1240.948,1200.252,1245.259,1188.868,1248.661,1177.188z"/>
	<path d="M980.206,463.635c3.431,2.758,7.108,5.19,10.872,7.479c2.848-3.118,5.361-6.53,7.535-10.147
		c-3.337-2.912-6.837-5.669-10.577-8.061C985.067,456.203,982.379,459.762,980.206,463.635z"/>
	<path d="M479.247,657.293c3.684-2.411,7.133-5.156,10.473-8.028c-2.086-3.672-4.554-7.116-7.322-10.301
		c-3.801,2.273-7.505,4.75-10.935,7.568C473.68,650.373,476.234,654.03,479.247,657.293z"/>
	<path d="M508.621,1193.577c-1.155-4.248-2.7-8.377-4.399-12.441c-4.136,0.849-8.176,2.132-12.06,3.78
		c0.988,4.317,2.199,8.605,3.819,12.739C500.32,1196.733,504.587,1195.434,508.621,1193.577z"/>
	<path d="M1027.735,1331.362c-4.397-0.215-8.801-0.021-13.191,0.339c-0.471,4.196-0.499,8.434-0.132,12.638
		c4.411,0.395,8.864,0.568,13.295,0.305C1028.171,1340.232,1028.254,1335.773,1027.735,1331.362z"/>
	<path d="M1319.191,880.233c-1.563,4.116-2.739,8.364-3.754,12.651c3.845,1.745,7.867,3.081,11.978,4.03
		c1.738-4.073,3.279-8.254,4.398-12.551C1327.762,882.559,1323.546,881.102,1319.191,880.233z"/>
	<path d="M1246.753,657.293c-3.684-2.411-7.133-5.156-10.473-8.028c2.086-3.672,4.554-7.116,7.322-10.301
		c3.801,2.273,7.505,4.75,10.935,7.568C1252.32,650.373,1249.766,654.03,1246.753,657.293z"/>
	<path d="M745.794,463.635c-3.431,2.758-7.108,5.19-10.872,7.479c-2.848-3.118-5.361-6.53-7.535-10.147
		c3.337-2.912,6.837-5.669,10.577-8.061C740.933,456.203,743.621,459.762,745.794,463.635z"/>
	<path d="M406.809,880.233c1.563,4.116,2.739,8.364,3.754,12.651c-3.845,1.745-7.867,3.081-11.978,4.03
		c-1.738-4.073-3.279-8.254-4.398-12.551C398.238,882.559,402.454,881.102,406.809,880.233z"/>
	<path d="M698.265,1331.362c4.397-0.215,8.801-0.021,13.191,0.339c0.471,4.196,0.499,8.434,0.132,12.638
		c-4.411,0.395-8.864,0.568-13.295,0.305C697.829,1340.232,697.746,1335.773,698.265,1331.362z"/>
	<path d="M1217.379,1193.577c1.155-4.248,2.7-8.377,4.399-12.441c4.136,0.849,8.176,2.132,12.06,3.78
		c-0.988,4.317-2.199,8.605-3.819,12.739C1225.68,1196.733,1221.413,1195.434,1217.379,1193.577z"/>
	<path d="M977.434,747.715c-21.168-133.919-37.952-241.232-38.739-249.753c6.79,3.871,35.321,24.922,41.993,29.628
		c2.474,1.908,5.779,3.685,6.092,7.165c8.689,61.495,11.673,65.621,9.142,69.048c-2.808,4.56-6.256,8.705-9.886,12.641
		c-1.444-6.277-9.893-61.432-11.568-73.472c-0.504-2.369-0.471-5.23-2.561-6.842c-5.095-4.121-10.443-7.964-16.117-11.239
		c1.685,10.381,20.238,129.715,20.238,129.715c5.36-5.846,9.5-12.639,14.183-19.003c20.327-27.868,20.946-27.746,22.056-30.393
		c0.026-4.193-7.357-46.407-11.354-75.321c-0.565-2.568-0.429-5.713-2.787-7.391c-2.431-1.788-61.136-44.197-63.941-45.318
		c-4.504-0.457-8.946,1.05-13.356,1.749c13.96,89.135,24.618,158.247,44.658,285.229c126.96-20.181,195.983-31.401,285.069-45.668
		c-0.699-4.411-0.638-9.1-2.464-13.243c-1.932-2.321-60.407-45.048-62.858-46.808c-2.325-1.724-5.274-0.622-7.891-0.366
		c-28.734,5.133-71.164,11.156-75.143,12.477c-2.174,1.874-1.867,2.424-22.09,30.368c-4.605,6.421-9.786,12.456-13.69,19.361
		c0,0,119.227-19.232,129.62-20.837c-4.869-4.385-10.176-8.283-15.669-11.855c-2.179-1.489-4.89-0.574-7.299-0.321
		c-11.969,2.128-67.035,11.136-73.451,11.703c2.622-4.669,5.499-9.229,8.967-13.308c2.477-3.467,7.323-1.904,68.493-12.643
		c3.407-0.778,6.118,1.817,8.697,3.58c6.537,4.891,35.374,25.52,41.154,30.782C1218.588,709.264,1111.341,726.464,977.434,747.715z"
		/>
	<path d="M1048.158,965.382c120.823-61.516,217.698-110.639,225.558-114.02c-1.583,7.654-12.788,41.294-15.202,49.093
		c-1.051,2.942-1.719,6.635-4.932,8.008c-55.8,27.267-58.802,31.38-62.844,30.031c-5.204-1.261-10.212-3.26-15.077-5.496
		c5.523-3.313,55.368-28.392,66.302-33.706c2.098-1.212,4.828-2.064,5.716-4.55c2.345-6.119,4.347-12.392,5.709-18.801
		c-9.352,4.81-117.113,59.331-117.113,59.331c7.216,3.291,14.956,5.129,22.455,7.617c32.786,10.721,32.861,11.346,35.721,11.585
		c3.995-1.271,41.862-21.337,68.125-34.074c2.267-1.331,5.3-2.173,6.168-4.935c0.949-2.864,23.142-71.802,23.341-74.815
		c-0.958-4.425-3.763-8.183-5.79-12.162c-80.459,40.821-142.894,72.314-257.469,130.613
		c58.426,114.51,90.426,176.688,131.524,257.005c3.979-2.027,8.458-3.419,11.833-6.436c1.61-2.555,24.177-71.371,25.092-74.246
		c0.921-2.744-1.038-5.208-2.09-7.618c-13.761-25.741-32.601-64.233-35.086-67.61c-2.454-1.489-2.882-1.026-35.708-11.624
		c-7.529-2.396-14.871-5.458-22.644-7.037c0,0,55.133,107.448,59.872,116.837c2.666-5.985,4.734-12.238,6.433-18.566
		c0.743-2.533-0.965-4.828-1.95-7.041c-5.722-10.725-31.306-60.313-33.828-66.24c5.25,1.051,10.477,2.377,15.428,4.416
		c4.062,1.284,4.074,6.377,33.19,61.234c1.792,3,0.162,6.38-0.717,9.378c-2.632,7.729-13.34,41.529-16.558,48.652
		C1159.248,1182.85,1109.749,1086.167,1048.158,965.382z"/>
	<path d="M863,1099.907c95.841,95.901,172.496,172.854,178.141,179.284c-7.769,0.859-43.224,0.599-51.388,0.713
		c-3.123-0.09-6.842,0.416-9.141-2.216c-43.175-44.643-48.015-46.227-47.981-50.488c-0.409-5.339-0.055-10.719,0.568-16.037
		c4.857,4.229,44.112,43.885,52.544,52.641c1.8,1.62,3.455,3.954,6.094,4.03c6.544,0.339,13.129,0.305,19.645-0.381
		c-7.465-7.408-92.617-93.047-92.617-93.047c-0.9,7.88-0.256,15.809-0.305,23.71c-0.065,34.494-0.637,34.759,0.021,37.552
		c2.443,3.407,33.229,33.22,53.458,54.262c1.967,1.745,3.705,4.37,6.599,4.342c3.018,0.018,75.439-0.179,78.366-0.921
		c3.912-2.278,6.62-6.108,9.778-9.265c-63.686-63.906-112.932-113.554-203.783-204.506
		c-90.851,90.952-140.097,140.599-203.783,204.506c3.158,3.158,5.865,6.987,9.778,9.265c2.927,0.742,75.349,0.938,78.366,0.921
		c2.894,0.028,4.633-2.597,6.599-4.342c20.229-21.042,51.015-50.854,53.458-54.262c0.657-2.794,0.085-3.058,0.021-37.552
		c-0.049-7.901,0.595-15.83-0.305-23.71c0,0-85.152,85.638-92.617,93.047c6.516,0.685,13.102,0.72,19.645,0.381
		c2.638-0.076,4.293-2.41,6.094-4.03c8.432-8.756,47.687-48.412,52.544-52.641c0.623,5.318,0.976,10.698,0.568,16.037
		c0.034,4.26-4.806,5.845-47.981,50.488c-2.299,2.631-6.018,2.126-9.141,2.216c-8.163-0.115-43.619,0.146-51.388-0.713
		C690.503,1272.761,767.159,1195.808,863,1099.907z"/>
	<path d="M677.842,965.382c-61.59,120.786-111.089,217.469-115.461,224.824c-3.218-7.123-13.927-40.924-16.558-48.652
		c-0.879-2.998-2.509-6.378-0.717-9.378c29.116-54.857,29.127-59.95,33.19-61.234c4.951-2.038,10.178-3.365,15.428-4.416
		c-2.521,5.927-28.106,55.514-33.828,66.24c-0.985,2.213-2.693,4.508-1.95,7.041c1.699,6.328,3.767,12.581,6.433,18.566
		c4.739-9.389,59.872-116.837,59.872-116.837c-7.773,1.579-15.114,4.641-22.644,7.037c-32.826,10.598-33.254,10.135-35.708,11.624
		c-2.486,3.376-21.326,41.868-35.086,67.61c-1.052,2.41-3.011,4.874-2.09,7.618c0.916,2.875,23.482,71.691,25.092,74.246
		c3.376,3.017,7.854,4.409,11.833,6.436c41.098-80.318,73.098-142.495,131.524-257.005
		c-114.575-58.299-177.01-89.792-257.469-130.613c-2.027,3.979-4.833,7.737-5.79,12.162c0.199,3.013,22.391,71.951,23.341,74.815
		c0.868,2.761,3.901,3.603,6.168,4.935c26.263,12.737,64.13,32.804,68.125,34.074c2.86-0.238,2.935-0.864,35.721-11.585
		c7.499-2.488,15.239-4.325,22.455-7.617c0,0-107.761-54.521-117.113-59.331c1.362,6.409,3.364,12.683,5.709,18.801
		c0.888,2.486,3.619,3.338,5.716,4.55c10.933,5.314,60.778,30.393,66.302,33.706c-4.865,2.236-9.873,4.235-15.077,5.496
		c-4.041,1.349-7.044-2.764-62.844-30.031c-3.213-1.373-3.881-5.066-4.932-8.008c-2.414-7.799-13.618-41.439-15.201-49.093
		C460.144,854.742,557.018,903.866,677.842,965.382z"/>
	<path d="M748.566,747.715c-133.906-21.251-241.153-38.451-249.5-40.335c5.78-5.262,34.617-25.891,41.154-30.782
		c2.579-1.763,5.291-4.358,8.697-3.58c61.17,10.739,66.017,9.176,68.493,12.643c3.469,4.079,6.346,8.64,8.967,13.308
		c-6.416-0.567-61.482-9.575-73.451-11.703c-2.409-0.253-5.12-1.168-7.299,0.321c-5.494,3.572-10.801,7.471-15.67,11.855
		c10.394,1.606,129.62,20.837,129.62,20.837c-3.904-6.904-9.085-12.94-13.69-19.361c-20.223-27.944-19.916-28.495-22.09-30.368
		c-3.979-1.321-46.409-7.344-75.143-12.477c-2.617-0.256-5.565-1.357-7.891,0.366c-2.452,1.76-60.926,44.487-62.858,46.808
		c-1.826,4.143-1.766,8.832-2.464,13.243c89.086,14.267,158.109,25.487,285.069,45.668c20.04-126.983,30.698-196.094,44.658-285.229
		c-4.411-0.699-8.852-2.205-13.356-1.749c-2.805,1.12-61.51,43.53-63.941,45.318c-2.358,1.679-2.222,4.824-2.787,7.391
		c-3.998,28.914-11.381,71.128-11.354,75.321c1.11,2.647,1.729,2.525,22.056,30.393c4.683,6.364,8.823,13.157,14.183,19.003
		c0,0,18.553-119.334,20.238-129.715c-5.675,3.276-11.023,7.118-16.117,11.239c-2.09,1.612-2.057,4.473-2.561,6.842
		c-1.675,12.04-10.124,67.196-11.568,73.472c-3.63-3.936-7.078-8.081-9.886-12.641c-2.532-3.427,0.452-7.553,9.142-69.048
		c0.313-3.48,3.619-5.257,6.092-7.165c6.672-4.706,35.202-25.757,41.993-29.628C786.518,506.483,769.734,613.795,748.566,747.715z"
		/>
</g>
</svg>
